PathFileType	4	(X/Y/Z)	C:\Users\86182\Documents\cortex\Trimmed_M3_H15.trc
DataRate	CameraRate	NumFrames	NumMarkers	Units	OrigDataRate	OrigDataStartFrame	OrigNumFrames
100.00	100.00	       126	2	mm	100.00	721	       901
Frame#	Time	gripper			box			
		X1	Y1	Z1	X2	Y2	Z2	

721	7.200	267.76974	173.12437	292.25665	268.14737	170.69530	155.95862	
722	7.210	267.76917	173.12357	292.25482	268.14737	170.69530	155.95862	
723	7.220	267.76816	173.12263	292.25165	268.14737	170.69530	155.95862	
724	7.230	267.76700	173.12181	292.24774	268.14737	170.69530	155.95862	
725	7.240	267.76584	173.12134	292.24374	268.14737	170.69530	155.95860	
726	7.250	267.76471	173.12134	292.24039	268.14737	170.69530	155.95860	
727	7.260	267.76370	173.12186	292.23822	268.14737	170.69530	155.95860	
728	7.270	267.76291	173.12286	292.23767	268.14737	170.69530	155.95859	
729	7.280	267.76266	173.12421	292.23907	268.14737	170.69530	155.95860	
730	7.290	267.76324	173.12570	292.24252	268.14737	170.69530	155.95860	
731	7.300	267.76465	173.12711	292.24762	268.14737	170.69530	155.95860	
732	7.310	267.76672	173.12827	292.25351	268.14737	170.69530	155.95860	
733	7.320	267.76907	173.12909	292.25928	268.14737	170.69530	155.95862	
734	7.330	267.77142	173.12955	292.26407	268.14737	170.69530	155.95862	
735	7.340	267.77350	173.12965	292.26724	268.14737	170.69530	155.95862	
736	7.350	267.77502	173.12947	292.26834	268.14737	170.69530	155.95862	
737	7.360	267.77594	173.12910	292.26758	268.14737	170.69530	155.95862	
738	7.370	267.77670	173.12878	292.26605	268.14737	170.69530	155.95862	
739	7.380	267.77777	173.12872	292.26489	268.14737	170.69530	155.95862	
740	7.390	267.77951	173.12906	292.26486	268.14737	170.69530	155.95862	
741	7.400	267.78192	173.12971	292.26620	268.14737	170.69530	155.95862	
742	7.410	267.78473	173.13048	292.26892	268.14737	170.69530	155.95862	
743	7.420	267.78757	173.13104	292.27264	268.14737	170.69530	155.95862	
744	7.430	267.79007	173.13120	292.27655	268.14737	170.69530	155.95862	
745	7.440	267.79175	173.13094	292.27972	268.14737	170.69530	155.95862	
746	7.450	267.79233	173.13040	292.28137	268.14737	170.69530	155.95862	
747	7.460	267.79156	173.12968	292.28107	268.14737	170.69530	155.95862	
748	7.470	267.78961	173.12889	292.27881	268.14737	170.69530	155.95863	
749	7.480	267.78671	173.12817	292.27496	268.14737	170.69530	155.95862	
750	7.490	267.78336	173.12781	292.27045	268.14737	170.69530	155.95862	
751	7.500	267.78024	173.12788	292.26633	268.14737	170.69530	155.95862	
752	7.510	267.77811	173.12830	292.26364	268.14737	170.69530	155.95862	
753	7.520	267.77756	173.12892	292.26303	268.14737	170.69530	155.95862	
754	7.530	267.77869	173.12962	292.26465	268.14737	170.69530	155.95863	
755	7.540	267.78125	173.13034	292.26801	268.14737	170.69530	155.95863	
756	7.550	267.78479	173.13083	292.27234	268.14737	170.69530	155.95863	
757	7.560	267.78882	173.13094	292.27704	268.14737	170.69530	155.95862	
758	7.570	267.79297	173.13065	292.28156	268.14737	170.69530	155.95862	
759	7.580	267.79688	173.13011	292.28555	268.14737	170.69530	155.95860	
760	7.590	267.79990	173.12932	292.28845	268.14740	170.69528	155.95859	
761	7.600	267.80139	173.12820	292.28961	268.14740	170.69528	155.95859	
762	7.610	267.80099	173.12691	292.28894	268.14740	170.69527	155.95859	
763	7.620	267.79883	173.12567	292.28659	268.14743	170.69525	155.95859	
764	7.630	267.79535	173.12477	292.28308	268.14743	170.69525	155.95859	
765	7.640	267.79129	173.12433	292.27893	268.14743	170.69525	155.95860	
766	7.650	267.78711	173.12437	292.27466	268.14740	170.69528	155.95862	
767	7.660	267.78308	173.12474	292.27039	268.14734	170.69533	155.95865	
768	7.670	267.77948	173.12524	292.26620	268.14722	170.69540	155.95869	
769	7.680	267.77673	173.12590	292.26251	268.14706	170.69553	155.95876	
770	7.690	267.77509	173.12691	292.25989	268.14685	170.69569	155.95883	
771	7.700	267.77454	173.12822	292.25858	268.14661	170.69588	155.95889	
772	7.710	267.77463	173.12938	292.25812	268.14636	170.69608	155.95895	
773	7.720	267.77490	173.12968	292.25760	268.14621	170.69621	155.95895	
774	7.730	267.77512	173.12881	292.25656	268.14621	170.69624	155.95889	
775	7.740	267.77527	173.12706	292.25525	268.14636	170.69615	155.95879	
776	7.750	267.77551	173.12515	292.25436	268.14661	170.69598	155.95865	
777	7.760	267.77628	173.12370	292.25467	268.14685	170.69579	155.95857	
778	7.770	267.77792	173.12306	292.25671	268.14706	170.69562	155.95853	
779	7.780	267.78073	173.12331	292.26071	268.14722	170.69547	155.95853	
780	7.790	267.78427	173.12419	292.26624	268.14734	170.69537	155.95853	
781	7.800	267.78757	173.12521	292.27203	268.14740	170.69530	155.95856	
782	7.810	267.78973	173.12584	292.27643	268.14743	170.69527	155.95857	
783	7.820	267.79025	173.12582	292.27832	268.14743	170.69525	155.95859	
784	7.830	267.78909	173.12527	292.27728	268.14743	170.69525	155.95860	
785	7.840	267.78647	173.12450	292.27359	268.14740	170.69527	155.95860	
786	7.850	267.78284	173.12364	292.26782	268.14740	170.69527	155.95860	
787	7.860	267.77887	173.12283	292.26120	268.14737	170.69528	155.95860	
788	7.870	267.77536	173.12212	292.25513	268.14737	170.69528	155.95862	
789	7.880	267.77286	173.12161	292.25104	268.14737	170.69530	155.95862	
790	7.890	267.77170	173.12143	292.24979	268.14737	170.69530	155.95862	
791	7.900	267.77216	173.12163	292.25174	268.14737	170.69530	155.95862	
792	7.910	267.77423	173.12221	292.25641	268.14737	170.69530	155.95862	
793	7.920	267.77756	173.12303	292.26276	268.14737	170.69530	155.95862	
794	7.930	267.78143	173.12387	292.26926	268.14737	170.69530	155.95862	
795	7.940	267.78510	173.12457	292.27457	268.14737	170.69530	155.95862	
796	7.950	267.78784	173.12514	292.27783	268.14737	170.69530	155.95862	
797	7.960	267.78928	173.12556	292.27872	268.14737	170.69530	155.95862	
798	7.970	267.78931	173.12575	292.27747	268.14737	170.69530	155.95860	
799	7.980	267.78836	173.12563	292.27490	268.14737	170.69530	155.95860	
800	7.990	267.78711	173.12534	292.27216	268.14737	170.69530	155.95860	
801	8.000	267.78613	173.12506	292.27039	268.14737	170.69530	155.95860	
802	8.010	267.78589	173.12491	292.27023	268.14737	170.69530	155.95862	
803	8.020	267.78647	173.12492	292.27188	268.14737	170.69530	155.95862	
804	8.030	267.78763	173.12517	292.27496	268.14737	170.69530	155.95862	
805	8.040	267.78885	173.12563	292.27859	268.14737	170.69530	155.95862	
806	8.050	267.78976	173.12616	292.28192	268.14737	170.69530	155.95862	
807	8.060	267.79010	173.12656	292.28406	268.14737	170.69530	155.95862	
808	8.070	267.78964	173.12677	292.28470	268.14737	170.69530	155.95862	
809	8.080	267.78848	173.12686	292.28394	268.14737	170.69530	155.95862	
810	8.090	267.78690	173.12695	292.28223	268.14737	170.69530	155.95862	
811	8.100	267.78537	173.12709	292.28003	268.14737	170.69530	155.95862	
812	8.110	267.78455	173.12727	292.27783	268.14737	170.69530	155.95862	
813	8.120	267.78497	173.12749	292.27637	268.14737	170.69530	155.95862	
814	8.130	267.78683	173.12779	292.27631	268.14737	170.69530	155.95862	
815	8.140	267.78983	173.12822	292.27795	268.14737	170.69530	155.95862	
816	8.150	267.79318	173.12875	292.28076	268.14737	170.69530	155.95862	
817	8.160	267.79599	173.12929	292.28369	268.14737	170.69530	155.95862	
818	8.170	267.79739	173.12964	292.28583	268.14737	170.69530	155.95862	
819	8.180	267.79703	173.12971	292.28641	268.14737	170.69530	155.95862	
820	8.190	267.79529	173.12947	292.28534	268.14737	170.69530	155.95862	
821	8.200	267.79288	173.12885	292.28290	268.14737	170.69530	155.95862	
822	8.210	267.79041	173.12779	292.27948	268.14737	170.69530	155.95863	
823	8.220	267.78818	173.12646	292.27570	268.14737	170.69530	155.95862	
824	8.230	267.78629	173.12527	292.27225	268.14737	170.69530	155.95862	
825	8.240	267.78479	173.12454	292.26981	268.14737	170.69530	155.95862	
826	8.250	267.78387	173.12431	292.26868	268.14737	170.69530	155.95862	
827	8.260	267.78354	173.12444	292.26880	268.14737	170.69530	155.95862	
828	8.270	267.78348	173.12473	292.26965	268.14737	170.69530	155.95862	
829	8.280	267.78326	173.12512	292.27045	268.14737	170.69530	155.95862	
830	8.290	267.78271	173.12561	292.27075	268.14737	170.69530	155.95862	
831	8.300	267.78204	173.12616	292.27020	268.14737	170.69530	155.95862	
832	8.310	267.78140	173.12650	292.26862	268.14737	170.69530	155.95862	
833	8.320	267.78076	173.12637	292.26575	268.14737	170.69530	155.95862	
834	8.330	267.78012	173.12564	292.26184	268.14737	170.69530	155.95862	
835	8.340	267.77963	173.12445	292.25787	268.14737	170.69530	155.95862	
836	8.350	267.77969	173.12328	292.25546	268.14737	170.69530	155.95862	
837	8.360	267.78058	173.12257	292.25604	268.14737	170.69530	155.95860	
838	8.370	267.78223	173.12257	292.25998	268.14737	170.69530	155.95860	
839	8.380	267.78430	173.12315	292.26648	268.14737	170.69530	155.95860	
840	8.390	267.78656	173.12408	292.27390	268.14737	170.69530	155.95860	
841	8.400	267.78873	173.12518	292.28058	268.14737	170.69530	155.95860	
842	8.410	267.79044	173.12630	292.28510	268.14737	170.69530	155.95860	
843	8.420	267.79132	173.12732	292.28680	268.14737	170.69530	155.95860	
844	8.430	267.79114	173.12816	292.28552	268.14737	170.69530	155.95859	
845	8.440	267.78998	173.12872	292.28189	268.14737	170.69530	155.95860	
846	8.450	267.78809	173.12903	292.27679	268.14737	170.69530	155.95860	
